<svg width="723.3" height="97.2" viewBox="0 0 723.3 97.2" xmlns="http://www.w3.org/2000/svg"><g id="svgGroup" stroke-linecap="round" fill-rule="evenodd" font-size="9pt" stroke="#000" stroke-width="0.25mm" fill="#000" style="stroke:#000;stroke-width:0.25mm;fill:#000"><path d="M 324.5 74 L 315.5 74 L 315.5 4 L 328.8 4 L 348.2 48.3 L 367.3 4 L 380.9 4 L 380.9 74 L 371.4 74 L 371.4 16.1 L 352.7 58.2 L 343.3 58.2 L 324.5 16.1 L 324.5 74 Z M 0 68.1 L 4.8 60.1 Q 8.4 63.1 12.9 65 A 23.348 23.348 0 0 0 18.27 66.51 A 32.118 32.118 0 0 0 23.4 66.9 A 27.981 27.981 0 0 0 27.947 66.554 Q 30.37 66.154 32.331 65.293 A 13.701 13.701 0 0 0 34.8 63.9 Q 38.848 61.008 38.995 56.166 A 12.116 12.116 0 0 0 39 55.8 A 11.94 11.94 0 0 0 38.663 52.907 A 9.816 9.816 0 0 0 37.8 50.65 A 8.097 8.097 0 0 0 36.6 48.994 Q 35.33 47.613 33.184 46.271 A 25.81 25.81 0 0 0 33.15 46.25 Q 30.034 44.308 24.265 42.08 A 118.584 118.584 0 0 0 23 41.6 Q 15.8 38.8 11.5 35.95 A 21.931 21.931 0 0 1 8.411 33.502 Q 6.694 31.853 5.638 29.987 A 13.303 13.303 0 0 1 5.35 29.45 Q 3.5 25.8 3.5 20.8 Q 3.5 15.8 6.25 11.75 Q 9 7.7 14.35 5.25 A 25.558 25.558 0 0 1 20.25 3.415 Q 23.493 2.8 27.3 2.8 Q 33.5 2.8 38.45 4.05 Q 43.4 5.3 48.1 7.6 L 44.6 15.7 A 31.496 31.496 0 0 0 40.474 13.681 A 41.686 41.686 0 0 0 36.65 12.35 Q 32.1 11 27.1 11 A 27.187 27.187 0 0 0 23.07 11.28 Q 20.938 11.6 19.2 12.287 A 12.616 12.616 0 0 0 16.7 13.6 A 9.902 9.902 0 0 0 14.537 15.565 A 7.359 7.359 0 0 0 12.9 20.3 A 10.464 10.464 0 0 0 13.192 22.822 A 8.562 8.562 0 0 0 14 24.9 Q 15.056 26.819 18.091 28.647 A 23.503 23.503 0 0 0 18.35 28.8 A 33.003 33.003 0 0 0 20.566 29.972 Q 22.835 31.075 26.046 32.323 A 130.016 130.016 0 0 0 28.1 33.1 A 81.228 81.228 0 0 1 33.078 35.129 Q 37.464 37.1 40.45 39.2 A 26.044 26.044 0 0 1 43.49 41.677 Q 45.713 43.806 46.9 46.15 A 17.579 17.579 0 0 1 48.641 52.013 A 22.155 22.155 0 0 1 48.8 54.7 A 21.71 21.71 0 0 1 48.133 60.201 A 17.105 17.105 0 0 1 45.55 65.8 Q 42.3 70.4 36.55 72.8 A 30.521 30.521 0 0 1 29.14 74.804 A 40.027 40.027 0 0 1 23.4 75.2 Q 16.1 75.2 10.1 73.25 A 38.206 38.206 0 0 1 4.733 71.068 A 28.433 28.433 0 0 1 0 68.1 Z M 581.9 92.8 L 585.2 85 A 20.562 20.562 0 0 0 589.017 87.373 A 24.737 24.737 0 0 0 590.8 88.15 Q 593.559 89.228 597.359 89.376 A 31.788 31.788 0 0 0 598.6 89.4 A 21.701 21.701 0 0 0 603.121 88.957 Q 606.022 88.339 608.222 86.859 A 12.576 12.576 0 0 0 609.75 85.65 A 11.352 11.352 0 0 0 612.657 81.157 Q 613.8 78.056 613.8 73.7 L 613.8 67.3 Q 611.8 69.7 608.05 71.85 Q 604.3 74 599.1 74 Q 593.2 74 587.9 70.95 A 22.236 22.236 0 0 1 580.608 64.112 A 27.437 27.437 0 0 1 579.3 62 A 25.181 25.181 0 0 1 576.587 54.376 A 35.033 35.033 0 0 1 576 47.8 A 32.06 32.06 0 0 1 576.917 39.992 A 26.682 26.682 0 0 1 579.25 33.9 A 25.706 25.706 0 0 1 585.314 26.278 A 24.448 24.448 0 0 1 588 24.3 Q 593.5 20.8 600.1 20.8 A 22.366 22.366 0 0 1 604.92 21.301 A 18.715 18.715 0 0 1 608.1 22.3 A 25.705 25.705 0 0 1 611.928 24.268 A 20.998 20.998 0 0 1 614.3 26 L 614.3 22 L 622.5 22 L 622.5 72.8 Q 622.5 81.4 619.5 86.8 Q 616.5 92.2 611.15 94.7 A 25.811 25.811 0 0 1 604.546 96.721 A 35.243 35.243 0 0 1 598.6 97.2 Q 594 97.2 589.65 96.1 A 27.232 27.232 0 0 1 584.35 94.183 A 23.518 23.518 0 0 1 581.9 92.8 Z M 468.6 74 L 459.6 74 L 459.6 22 L 468.3 22 L 468.3 30.7 Q 471.1 26.5 475.45 23.65 A 17.316 17.316 0 0 1 482.556 21.025 A 22.629 22.629 0 0 1 485.8 20.8 A 23.225 23.225 0 0 1 490.865 21.318 Q 495.959 22.456 498.95 26.1 Q 503.075 31.126 503.288 39.209 A 33.764 33.764 0 0 1 503.3 40.1 L 503.3 74 L 494.3 74 L 494.3 41.1 A 19.265 19.265 0 0 0 493.958 37.359 Q 493.519 35.145 492.519 33.397 A 10.966 10.966 0 0 0 491.65 32.1 A 8.579 8.579 0 0 0 485.373 28.747 A 12.061 12.061 0 0 0 484.3 28.7 A 13.122 13.122 0 0 0 477.451 30.664 A 17.353 17.353 0 0 0 475.6 31.95 Q 471.5 35.2 468.6 39.6 L 468.6 74 Z M 232.3 51.7 L 195.9 51.7 A 24.088 24.088 0 0 0 197.039 56.725 Q 198.375 60.538 201 63.1 Q 205.2 67.2 212.1 67.2 Q 216.6 67.2 220.2 66.25 Q 223.8 65.3 227.1 63.8 L 229.2 71.5 A 40.77 40.77 0 0 1 224.865 73.126 A 51.863 51.863 0 0 1 221.1 74.15 A 38.914 38.914 0 0 1 216.008 74.969 A 52.025 52.025 0 0 1 211 75.2 A 28.318 28.318 0 0 1 203.254 74.195 A 21.108 21.108 0 0 1 193.25 68.05 A 23.521 23.521 0 0 1 188.045 58.51 Q 186.7 53.845 186.7 48 A 35.359 35.359 0 0 1 187.533 40.178 A 28.84 28.84 0 0 1 189.65 34.05 A 24.642 24.642 0 0 1 194.666 26.968 A 22.887 22.887 0 0 1 197.9 24.35 A 21.048 21.048 0 0 1 208.159 20.878 A 26.205 26.205 0 0 1 210.2 20.8 Q 217.7 20.8 222.65 24.05 Q 227.6 27.3 230.1 32.8 A 28.185 28.185 0 0 1 232.526 42.664 A 33.434 33.434 0 0 1 232.6 44.9 A 75.204 75.204 0 0 1 232.309 51.597 A 69.426 69.426 0 0 1 232.3 51.7 Z M 680.1 51.7 L 643.7 51.7 A 24.088 24.088 0 0 0 644.839 56.725 Q 646.175 60.538 648.8 63.1 Q 653 67.2 659.9 67.2 Q 664.4 67.2 668 66.25 Q 671.6 65.3 674.9 63.8 L 677 71.5 A 40.77 40.77 0 0 1 672.665 73.126 A 51.863 51.863 0 0 1 668.9 74.15 A 38.914 38.914 0 0 1 663.808 74.969 A 52.025 52.025 0 0 1 658.8 75.2 A 28.318 28.318 0 0 1 651.054 74.195 A 21.108 21.108 0 0 1 641.05 68.05 A 23.521 23.521 0 0 1 635.845 58.51 Q 634.5 53.845 634.5 48 A 35.359 35.359 0 0 1 635.333 40.178 A 28.84 28.84 0 0 1 637.45 34.05 A 24.642 24.642 0 0 1 642.466 26.968 A 22.887 22.887 0 0 1 645.7 24.35 A 21.048 21.048 0 0 1 655.959 20.878 A 26.205 26.205 0 0 1 658 20.8 Q 665.5 20.8 670.45 24.05 Q 675.4 27.3 677.9 32.8 A 28.185 28.185 0 0 1 680.326 42.664 A 33.434 33.434 0 0 1 680.4 44.9 A 75.204 75.204 0 0 1 680.109 51.597 A 69.426 69.426 0 0 1 680.1 51.7 Z M 97.4 26.2 L 97.4 22 L 105.6 22 L 105.6 61.4 A 12.15 12.15 0 0 0 105.702 63.036 Q 106.034 65.47 107.45 66.35 Q 109.3 67.5 111.5 67.5 L 109.6 74.5 A 17.722 17.722 0 0 1 105.335 74.028 Q 99.698 72.628 98.103 67.08 A 13.59 13.59 0 0 1 98 66.7 A 21.307 21.307 0 0 1 94.89 70.126 A 28.498 28.498 0 0 1 91.75 72.55 Q 87.8 75.2 81.7 75.2 Q 75.2 75.2 69.9 71.9 A 22.947 22.947 0 0 1 62.487 64.373 A 27.923 27.923 0 0 1 61.45 62.55 A 27.228 27.228 0 0 1 58.82 54.608 A 36.644 36.644 0 0 1 58.3 48.3 A 33.142 33.142 0 0 1 59.297 40.031 A 27.968 27.968 0 0 1 61.45 34.3 Q 64.6 28.1 70.15 24.45 A 22.297 22.297 0 0 1 81.345 20.844 A 27.388 27.388 0 0 1 82.9 20.8 A 22.584 22.584 0 0 1 87.694 21.29 A 18.703 18.703 0 0 1 91.05 22.35 A 26.002 26.002 0 0 1 95.337 24.644 A 22.103 22.103 0 0 1 97.4 26.2 Z M 433.5 26.2 L 433.5 22 L 441.7 22 L 441.7 61.4 A 12.15 12.15 0 0 0 441.802 63.036 Q 442.134 65.47 443.55 66.35 Q 445.4 67.5 447.6 67.5 L 445.7 74.5 A 17.722 17.722 0 0 1 441.435 74.028 Q 435.798 72.628 434.203 67.08 A 13.59 13.59 0 0 1 434.1 66.7 A 21.307 21.307 0 0 1 430.99 70.126 A 28.498 28.498 0 0 1 427.85 72.55 Q 423.9 75.2 417.8 75.2 Q 411.3 75.2 406 71.9 A 22.947 22.947 0 0 1 398.587 64.373 A 27.923 27.923 0 0 1 397.55 62.55 A 27.228 27.228 0 0 1 394.92 54.608 A 36.644 36.644 0 0 1 394.4 48.3 A 33.142 33.142 0 0 1 395.397 40.031 A 27.968 27.968 0 0 1 397.55 34.3 Q 400.7 28.1 406.25 24.45 A 22.297 22.297 0 0 1 417.445 20.844 A 27.388 27.388 0 0 1 419 20.8 A 22.584 22.584 0 0 1 423.794 21.29 A 18.703 18.703 0 0 1 427.15 22.35 A 26.002 26.002 0 0 1 431.437 24.644 A 22.103 22.103 0 0 1 433.5 26.2 Z M 554.4 26.2 L 554.4 22 L 562.6 22 L 562.6 61.4 A 12.15 12.15 0 0 0 562.702 63.036 Q 563.034 65.47 564.45 66.35 Q 566.3 67.5 568.5 67.5 L 566.6 74.5 A 17.722 17.722 0 0 1 562.335 74.028 Q 556.698 72.628 555.103 67.08 A 13.59 13.59 0 0 1 555 66.7 A 21.307 21.307 0 0 1 551.89 70.126 A 28.498 28.498 0 0 1 548.75 72.55 Q 544.8 75.2 538.7 75.2 Q 532.2 75.2 526.9 71.9 A 22.947 22.947 0 0 1 519.487 64.373 A 27.923 27.923 0 0 1 518.45 62.55 A 27.228 27.228 0 0 1 515.82 54.608 A 36.644 36.644 0 0 1 515.3 48.3 A 33.142 33.142 0 0 1 516.297 40.031 A 27.968 27.968 0 0 1 518.45 34.3 Q 521.6 28.1 527.15 24.45 A 22.297 22.297 0 0 1 538.345 20.844 A 27.388 27.388 0 0 1 539.9 20.8 A 22.584 22.584 0 0 1 544.694 21.29 A 18.703 18.703 0 0 1 548.05 22.35 A 26.002 26.002 0 0 1 552.337 24.644 A 22.103 22.103 0 0 1 554.4 26.2 Z M 123 57.7 L 123 0 L 132 0 L 132 56.8 A 20.644 20.644 0 0 0 132.188 59.688 Q 132.65 62.952 134.25 64.8 A 7.363 7.363 0 0 0 138.834 67.276 A 10.724 10.724 0 0 0 140.5 67.4 Q 142.4 67.4 144.25 66.95 A 22.192 22.192 0 0 0 145.713 66.544 Q 146.648 66.247 147.4 65.9 L 149.6 73.2 Q 148.201 73.822 146.288 74.323 A 34.978 34.978 0 0 1 145.15 74.6 A 23.816 23.816 0 0 1 141.995 75.085 A 30.514 30.514 0 0 1 139.3 75.2 A 20.862 20.862 0 0 1 134.41 74.646 A 17.544 17.544 0 0 1 131 73.45 A 12.683 12.683 0 0 1 125.675 68.685 A 15.856 15.856 0 0 1 125.15 67.8 Q 123.416 64.654 123.08 60.012 A 32.105 32.105 0 0 1 123 57.7 Z M 156.6 57.7 L 156.6 0 L 165.6 0 L 165.6 56.8 A 20.644 20.644 0 0 0 165.788 59.688 Q 166.25 62.952 167.85 64.8 A 7.363 7.363 0 0 0 172.434 67.276 A 10.724 10.724 0 0 0 174.1 67.4 Q 176 67.4 177.85 66.95 A 22.192 22.192 0 0 0 179.313 66.544 Q 180.248 66.247 181 65.9 L 183.2 73.2 Q 181.801 73.822 179.888 74.323 A 34.978 34.978 0 0 1 178.75 74.6 A 23.816 23.816 0 0 1 175.595 75.085 A 30.514 30.514 0 0 1 172.9 75.2 A 20.862 20.862 0 0 1 168.01 74.646 A 17.544 17.544 0 0 1 164.6 73.45 A 12.683 12.683 0 0 1 159.275 68.685 A 15.856 15.856 0 0 1 158.75 67.8 Q 157.016 64.654 156.68 60.012 A 32.105 32.105 0 0 1 156.6 57.7 Z M 253.6 74 L 244.6 74 L 244.6 22 L 253.3 22 L 253.3 33.3 Q 254.6 30 256.8 27.15 Q 259 24.3 262.3 22.55 A 14.817 14.817 0 0 1 266.98 21.026 A 19.459 19.459 0 0 1 270 20.8 Q 271.5 20.8 273 20.95 A 18.972 18.972 0 0 1 274.055 21.084 Q 274.555 21.162 274.982 21.262 A 8.817 8.817 0 0 1 275.5 21.4 L 272.8 30.7 A 9.763 9.763 0 0 0 270.655 30.088 Q 269.559 29.9 268.3 29.9 A 12.958 12.958 0 0 0 261.67 31.746 A 15.609 15.609 0 0 0 261.25 32 Q 257.922 34.086 255.778 38.442 A 22.927 22.927 0 0 0 255.75 38.5 Q 253.987 42.107 253.67 47.328 A 39.09 39.09 0 0 0 253.6 49.7 L 253.6 74 Z M 701.4 74 L 692.4 74 L 692.4 22 L 701.1 22 L 701.1 33.3 Q 702.4 30 704.6 27.15 Q 706.8 24.3 710.1 22.55 A 14.817 14.817 0 0 1 714.78 21.026 A 19.459 19.459 0 0 1 717.8 20.8 Q 719.3 20.8 720.8 20.95 A 18.972 18.972 0 0 1 721.855 21.084 Q 722.355 21.162 722.782 21.262 A 8.817 8.817 0 0 1 723.3 21.4 L 720.6 30.7 A 9.763 9.763 0 0 0 718.455 30.088 Q 717.359 29.9 716.1 29.9 A 12.958 12.958 0 0 0 709.47 31.746 A 15.609 15.609 0 0 0 709.05 32 Q 705.722 34.086 703.578 38.442 A 22.927 22.927 0 0 0 703.55 38.5 Q 701.787 42.107 701.47 47.328 A 39.09 39.09 0 0 0 701.4 49.7 L 701.4 74 Z M 96.6 60.7 L 96.6 32.8 Q 93.9 30.9 90.65 29.75 Q 87.4 28.6 83.8 28.6 A 15.924 15.924 0 0 0 78.829 29.354 A 14.024 14.024 0 0 0 75.35 31.05 A 16.301 16.301 0 0 0 70.331 36.474 A 19.962 19.962 0 0 0 69.6 37.85 A 20.663 20.663 0 0 0 67.847 43.527 A 27.678 27.678 0 0 0 67.5 48 Q 67.5 53.6 69.6 57.95 A 17.602 17.602 0 0 0 72.706 62.496 A 15.697 15.697 0 0 0 75.4 64.75 Q 79.1 67.2 83.7 67.2 Q 87.5 67.2 90.9 65.35 Q 94.3 63.5 96.6 60.7 Z M 432.7 60.7 L 432.7 32.8 Q 430 30.9 426.75 29.75 Q 423.5 28.6 419.9 28.6 A 15.924 15.924 0 0 0 414.929 29.354 A 14.024 14.024 0 0 0 411.45 31.05 A 16.301 16.301 0 0 0 406.431 36.474 A 19.962 19.962 0 0 0 405.7 37.85 A 20.663 20.663 0 0 0 403.947 43.527 A 27.678 27.678 0 0 0 403.6 48 Q 403.6 53.6 405.7 57.95 A 17.602 17.602 0 0 0 408.806 62.496 A 15.697 15.697 0 0 0 411.5 64.75 Q 415.2 67.2 419.8 67.2 Q 423.6 67.2 427 65.35 Q 430.4 63.5 432.7 60.7 Z M 553.6 60.7 L 553.6 32.8 Q 550.9 30.9 547.65 29.75 Q 544.4 28.6 540.8 28.6 A 15.924 15.924 0 0 0 535.829 29.354 A 14.024 14.024 0 0 0 532.35 31.05 A 16.301 16.301 0 0 0 527.331 36.474 A 19.962 19.962 0 0 0 526.6 37.85 A 20.663 20.663 0 0 0 524.847 43.527 A 27.678 27.678 0 0 0 524.5 48 Q 524.5 53.6 526.6 57.95 A 17.602 17.602 0 0 0 529.706 62.496 A 15.697 15.697 0 0 0 532.4 64.75 Q 536.1 67.2 540.7 67.2 Q 544.5 67.2 547.9 65.35 Q 551.3 63.5 553.6 60.7 Z M 613.5 60 L 613.5 32.8 Q 611.334 31.225 608.297 29.941 A 36.018 36.018 0 0 0 608.2 29.9 A 16.249 16.249 0 0 0 604.396 28.849 A 22.135 22.135 0 0 0 601 28.6 Q 596.9 28.6 593.3 30.8 Q 589.7 33 587.45 37.15 Q 585.2 41.3 585.2 47.3 A 24.32 24.32 0 0 0 585.678 52.236 A 18.311 18.311 0 0 0 587.45 57.2 A 18.576 18.576 0 0 0 590.361 61.275 A 15.802 15.802 0 0 0 593.3 63.7 Q 596.9 66 601.1 66 A 15.276 15.276 0 0 0 605.678 65.332 A 13.606 13.606 0 0 0 608.3 64.2 A 20.855 20.855 0 0 0 611.281 62.184 A 16.309 16.309 0 0 0 613.5 60 Z M 195.8 44.4 L 224.3 44.4 A 24.355 24.355 0 0 0 223.896 39.815 Q 223.4 37.231 222.296 35.207 A 12.422 12.422 0 0 0 220.5 32.7 A 12.488 12.488 0 0 0 213.539 28.924 A 18.395 18.395 0 0 0 210 28.6 A 13.58 13.58 0 0 0 204.888 29.535 A 12.524 12.524 0 0 0 200.4 32.65 Q 196.6 36.7 195.8 44.4 Z M 643.6 44.4 L 672.1 44.4 A 24.355 24.355 0 0 0 671.696 39.815 Q 671.2 37.231 670.096 35.207 A 12.422 12.422 0 0 0 668.3 32.7 A 12.488 12.488 0 0 0 661.339 28.924 A 18.395 18.395 0 0 0 657.8 28.6 A 13.58 13.58 0 0 0 652.688 29.535 A 12.524 12.524 0 0 0 648.2 32.65 Q 644.4 36.7 643.6 44.4 Z" vector-effect="non-scaling-stroke"/></g></svg>